<?xml version="1.0" encoding="UTF-8"?>
<!-- Generator: Adobe Illustrator 18.0.0, SVG Export Plug-In . SVG Version: 6.00 Build 0)  -->
<!DOCTYPE svg PUBLIC "-//W3C//DTD SVG 1.1//EN" "http://www.w3.org/Graphics/SVG/1.1/DTD/svg11.dtd">
<svg version="1.1" id="Слой_1" xmlns="http://www.w3.org/2000/svg" xmlns:xlink="http://www.w3.org/1999/xlink" x="0px" y="0px" viewBox="600 0 230 265.3" enable-background="new 23.4 0 791 595.3" xml:space="preserve">
<path fill="#663A2A" d="M646.2,374.1v-69.3h23.2v32.3c0,2.4-0.5,5-0.5,5h1l25.3-37.3h19.7v69.3h-20.7v-32.5c0-2.3,0.5-4.6,0.5-4.6  h-1l-25.3,37.1H646.2z"/>
<path fill="#663A2A" d="M597.9,354.4c8.5,0,14.1-6.6,14.1-14.8c0-8.4-5.6-15-14.1-15c-8.2,0-14.1,6.6-14.1,15  C583.8,347.8,589.7,354.4,597.9,354.4 M597.9,303c22.1,0,38.6,15.6,38.6,36.6c0,20.8-16.5,36.4-38.6,36.4  c-21.9,0-38.4-15.6-38.4-36.4C559.5,318.7,576,303,597.9,303"/>
<path fill="#663A2A" d="M137.2,446.4c14,0,23.5-10.2,23.5-23.6c0-13.6-9.5-24-23.5-24c-13.7,0-23.3,10.3-23.3,24  C113.9,436.2,123.4,446.4,137.2,446.4 M137.2,386.1c21.7,0,37.1,15.6,37.1,36.7c0,20.8-15.4,36.3-37.1,36.3c-21.5,0-37-15.5-37-36.3  C100.2,401.8,115.7,386.1,137.2,386.1"/>
<path fill="#663A2A" d="M449.7,397.7c12.5,0,19,8.1,20.1,18.7h-40C431.8,405.4,439.4,397.7,449.7,397.7 M482.5,427.2  c0.1-1.4,0.2-2.9,0.2-4.3c0-21.1-10.9-36.7-33.7-36.7c-19.5,0-33.6,15.6-33.6,36.7c0,1.5,0.1,2.9,0.2,4.3h0  c1.6,18.1,13.2,32,37.4,32c11.7,0,21.6-3.6,28.8-9.4l-5.4-9.9c-5.3,4-13.4,7.7-23,7.7c-15.1,0-22.4-8.2-23.8-20.3h0.1L482.5,427.2  L482.5,427.2z"/>
<polygon fill="#663A2A" points="543.1,388 543.1,416.4 506,416.4 506,388 492.2,388 492.2,457.3 506,457.3 506,427.1 543.1,427.1   543.1,457.3 556.9,457.3 556.9,388 "/>
<polygon fill="#663A2A" points="629.6,388 566.5,388 566.5,400.3 591.1,400.3 591.1,457.3 604.9,457.3 604.9,400.3 629.6,400.3 "/>
<rect x="703.7" y="388" fill="#663A2A" width="13.8" height="69.3"/>
<path fill="#663A2A" d="M214,420.9v-0.6c0,0,1.3-0.4,2.4-1.7c1.2-1.3,26.4-30.5,26.4-30.5h-15.5l-24.3,28.4h-5.5V388h-13.8v69.3  h13.8v-30.2h6.3l26.3,30.2h17.2c0,0-29.5-33.2-30.7-34.6C215.4,421.3,214,420.9,214,420.9"/>
<path fill="#663A2A" d="M661.1,446.9c-4.3,0-8.2-0.3-8.2-0.3v-25c0,0,3-0.8,8.3-0.8c11.5,0,16.6,4.5,16.6,12.8  C677.9,441.7,673.3,446.9,661.1,446.9 M663.6,409.2c-6.4,0-10.7,0.8-10.7,0.8v-22h-13.8v69.3c0,0,11.3,1.1,23.1,1.1  c21.7,0,28.8-13.2,28.8-25.4C691,420.7,684.6,409.2,663.6,409.2"/>
<path fill="#663A2A" d="M57.8,446.4c-13.9,0-21.3-10.2-21-23.6c0.3-13.6,8.2-24,22.1-24c7.7,0,18,7,18,19.7v19.1  C72.6,443.1,65.9,446.4,57.8,446.4 M77.5,388l-0.4,8.7h-0.9c-4.4-6.5-13.2-10.6-20.1-10.6c-20.2,0-32.2,15.6-32.7,36.7  c-0.5,20.8,11.7,36.3,31.9,36.3c9.3,0,15-2.6,20.7-9.3h0.9v6.2c0,13.4-9.3,18.7-19.8,18.7c-9.7,0-17.2-3.6-21.8-6.4l-4.5,11.4  c4.4,2.3,12.6,7.2,26.3,7.2c19.4,0,33.6-11.5,33.6-33.7V388L77.5,388L77.5,388z"/>
<path fill="#663A2A" d="M302,388v50.2c-4.1,5.1-10.3,8.2-18.1,8.2c-12.7,0-18.5-10.2-18.1-23.6V388h-13.4v34.8  c-0.5,20.8,7.8,36.3,28,36.3c9.2,0,15.5-2.7,20.7-9.3h0.9v6.2c0,13.4-9.3,18.7-19.8,18.7c-9.7,0-17.2-3.6-21.8-6.4l-4.5,11.4  c4.4,2.3,12.6,7.2,26.3,7.2c19.4,0,33.6-11.5,33.6-33.7V388L302,388L302,388z"/>
<path fill="#663A2A" d="M392.8,388c0,0-22.8,32.1-23.5,33c-0.7,0.9-0.9,1.9-0.9,1.9h-0.5c0,0-0.3-0.9-1-1.9c-0.7-1-25.2-33-25.2-33  h-13v69.3h13.8v-44.2c0-3.1-0.6-4.8-0.6-4.8h0.6l25.4,34.1h0.6l23.5-34.1h0.7c0,0-0.7,1.8-0.7,4.8v44.2h13.8V388L392.8,388  L392.8,388z"/>
<path fill="#663A2A" d="M531.7,304.9c0,0-19.4,25.2-20.2,26.2c-0.9,1.2-1,1.8-1,1.8h-1c0,0-0.2-0.7-1.1-1.8  c-1.4-1.7-21.5-26.2-21.5-26.2h-18.3v69.3h22.4V345c0-3.1-0.5-5-0.5-5h1l18,20.7h1l16.7-20.7h1c0,0-0.5,1.9-0.5,5v29.1H550v-69.3  H531.7z"/>
<path fill="#C79B65" d="M675.9,167.3V97h-55.4v70.3c0,24.7,13.2,47.6,34.7,60l62.3,36v-64l-34.6-20  C678.5,176.8,675.9,172.3,675.9,167.3"/>
<path fill="#E84B37" d="M717.4,235.6l62.4-36c21.4-12.4,34.7-35.3,34.7-60V0h-97v55.4H759v84.1c0,4.9-2.6,9.5-6.9,12l-34.6,20V235.6  z"/>
<polygon fill="#663A2A" points="717.4,0 620.5,97 717.4,97 "/>
<polygon fill="#E84B37" points="202.1,565.1 202.4,560.7 202.2,560.7 200.1,565.6 190.2,582 187.5,582 187.5,552.7 191.7,552.7   191.7,570.1 191.3,574.4 191.6,574.4 193.5,569.6 203.6,552.7 206.3,552.7 206.3,582 202.1,582 "/>
<polygon fill="#E84B37" points="247.5,564.6 247.9,559 247.6,559 245.9,564 240.4,575.3 238.9,575.3 233.2,564 231.6,559 231.3,559   231.8,564.5 231.8,582 228,582 228,552.7 232.2,552.7 238.6,565.4 239.9,569.2 240,569.2 241.4,565.3 247.4,552.7 251.7,552.7   251.7,582 247.5,582 "/>
<path fill="#E84B37" d="M267.1,571.7l1.2,5.7h0.3l0.9-5.7l4.5-19h4.3l-7,26.3c-0.6,2.1-1.1,4.1-1.6,5.9c-0.6,1.8-1.1,3.4-1.8,4.8  c-0.6,1.3-1.4,2.4-2.2,3.2c-0.8,0.8-1.7,1.1-2.8,1.1c-1.1,0-2.1-0.2-2.9-0.5l0.7-4c0.5,0.2,1.1,0.2,1.6,0.1c0.5-0.1,1.1-0.5,1.6-1  c0.5-0.6,0.9-1.3,1.3-2.4c0.4-1.1,0.8-2.5,1.1-4.2l-9.5-29.3h4.8L267.1,571.7z"/>
<polygon fill="#E84B37" points="297.4,568.9 287.2,568.9 287.2,582 283,582 283,552.7 287.2,552.7 287.2,565.1 297.4,565.1   297.4,552.7 301.6,552.7 301.6,582 297.4,582 "/>
<polygon fill="#E84B37" points="324.2,565.1 324.6,560.7 324.3,560.7 322.3,565.6 312.4,582 309.6,582 309.6,552.7 313.9,552.7   313.9,570.1 313.5,574.4 313.7,574.4 315.7,569.6 325.7,552.7 328.5,552.7 328.5,582 324.2,582 "/>
<polygon fill="#E84B37" points="358.1,589.5 355.1,589.5 354.4,582 336.6,582 336.6,552.7 340.8,552.7 340.8,578.2 350.5,578.2   350.5,552.7 354.7,552.7 354.7,578.2 358.1,578.2 "/>
<polygon fill="#E84B37" points="378.3,565.1 378.6,560.7 378.4,560.7 376.3,565.6 366.4,582 363.7,582 363.7,552.7 367.9,552.7   367.9,570.1 367.5,574.4 367.8,574.4 369.7,569.6 379.7,552.7 382.5,552.7 382.5,582 378.3,582 "/>
<polygon fill="#E84B37" points="404.6,556.5 394.8,556.5 394.8,582 390.6,582 390.6,552.7 408.9,552.7 408.9,582 404.6,582 "/>
<path fill="#E84B37" d="M429.3,568.6c-0.4,0-0.8-0.1-1.2-0.1c-0.4,0-0.8,0-1.2,0c-0.9,0-1.8,0.1-2.7,0.2c-0.9,0.2-1.7,0.4-2.4,0.8  c-0.7,0.4-1.3,0.9-1.6,1.6c-0.4,0.7-0.6,1.5-0.6,2.5c0,1.6,0.4,2.8,1.2,3.6c0.7,0.9,1.7,1.3,2.9,1.3c1.6,0,2.9-0.4,3.8-1.2  c0.9-0.8,1.5-1.6,1.9-2.6L429.3,568.6L429.3,568.6z M416.7,554.5c1.1-0.7,2.5-1.2,4.2-1.6c1.6-0.4,3.3-0.6,5.1-0.6  c1.6,0,3,0.2,4,0.7c1,0.5,1.8,1.1,2.4,2c0.6,0.8,0.9,1.8,1.1,2.9c0.2,1.1,0.3,2.2,0.3,3.4c0,2.3,0,4.6-0.1,6.9  c-0.1,2.2-0.2,4.4-0.2,6.3c0,1.5,0.1,2.9,0.2,4.1c0.1,1.3,0.3,2.5,0.5,3.6h-3.3l-1-3.5h-0.2c-0.6,1-1.4,1.9-2.6,2.6  c-1.1,0.8-2.6,1.1-4.5,1.1c-2.1,0-3.8-0.7-5.2-2.2c-1.3-1.5-2-3.5-2-6.1c0-1.7,0.3-3.1,0.8-4.2c0.6-1.1,1.4-2.1,2.4-2.8  c1-0.7,2.3-1.2,3.7-1.5c1.4-0.3,3-0.5,4.7-0.5h1.2c0.4,0,0.8,0,1.2,0.1c0.1-1.2,0.2-2.3,0.2-3.2c0-2.2-0.3-3.8-1-4.7  c-0.7-0.9-1.9-1.3-3.6-1.3c-1.1,0-2.3,0.2-3.6,0.5c-1.3,0.3-2.4,0.7-3.2,1.3L416.7,554.5z"/>
<path fill="#E84B37" d="M454.3,556.5h-6.4c-0.1,3.3-0.3,6.5-0.5,9.7c-0.2,3.1-0.5,5.9-1,8.2c-0.5,2.4-1.2,4.3-2.1,5.7  c-0.9,1.4-2.1,2.1-3.6,2.1c-0.7,0-1.2,0-1.7-0.1c-0.5-0.1-0.9-0.2-1.3-0.4l0.7-3.6c0.8,0.2,1.5,0.2,2.2-0.2c0.6-0.3,1.2-1.3,1.7-3  c0.5-1.7,0.8-4.3,1.1-7.8c0.3-3.5,0.5-8.3,0.6-14.4h14.5V582h-4.2L454.3,556.5L454.3,556.5z"/>
<path fill="#E84B37" d="M470.9,578.2c1.2,0.2,2.2,0.4,3.2,0.4c3.7,0,5.5-1.9,5.5-5.8c0-1.8-0.4-3.1-1.3-4.1c-0.9-1-2.2-1.5-4.1-1.5  c-0.5,0-1,0-1.6,0.1c-0.6,0.1-1.2,0.2-1.7,0.3V578.2z M470.9,563.9c0.8-0.1,1.5-0.2,2.2-0.3c0.7-0.1,1.4-0.1,2-0.1  c1.6,0,3,0.2,4.2,0.7c1.1,0.5,2.1,1.1,2.8,1.9c0.7,0.8,1.2,1.7,1.5,2.8c0.3,1.1,0.4,2.2,0.4,3.4c0,3.5-0.8,6.1-2.6,7.7  c-1.7,1.6-4.4,2.4-8.1,2.4c-2.3,0-4.5-0.1-6.7-0.4v-29.3h4.2L470.9,563.9L470.9,563.9z"/>
<polygon fill="#E84B37" points="504.3,568.9 494.1,568.9 494.1,582 489.9,582 489.9,552.7 494.1,552.7 494.1,565.1 504.3,565.1   504.3,552.7 508.5,552.7 508.5,582 504.3,582 "/>
<path fill="#E84B37" d="M537,552.7h4.2V582H537V552.7z M520.8,578.2c1.2,0.2,2.3,0.4,3.2,0.4c1.9,0,3.2-0.5,3.9-1.5  c0.7-1,1.1-2.4,1.1-4.3c0-1.8-0.4-3.1-1.1-4.1c-0.7-1-2-1.5-3.8-1.5c-0.5,0-1.1,0-1.6,0.1c-0.6,0.1-1.2,0.2-1.7,0.3V578.2z   M520.8,563.9c0.8-0.1,1.5-0.2,2.2-0.3c0.7-0.1,1.4-0.1,2-0.1c1.6,0,3,0.2,4.1,0.7c1.1,0.5,2,1.1,2.6,1.9c0.7,0.8,1.1,1.7,1.4,2.8  c0.3,1.1,0.4,2.2,0.4,3.4c0,3.5-0.8,6.1-2.4,7.7c-1.6,1.6-4.2,2.4-7.9,2.4c-2.3,0-4.5-0.1-6.6-0.4v-29.3h4.2V563.9z"/>
<path fill="#E84B37" d="M563.5,564.3c0.1-2.9-0.3-5.1-1.2-6.5c-0.9-1.4-2.1-2-3.7-2c-1.8,0-3.2,0.7-4.3,2c-1.1,1.4-1.7,3.5-1.9,6.5  H563.5z M566.8,580c-0.9,0.9-2.1,1.5-3.6,2c-1.4,0.5-3,0.7-4.6,0.7c-1.8,0-3.4-0.4-4.8-1.1c-1.3-0.7-2.5-1.8-3.4-3.1  c-0.9-1.4-1.5-3-1.9-4.8c-0.4-1.9-0.6-4-0.6-6.3c0-5,0.9-8.8,2.8-11.4c1.8-2.6,4.4-3.9,7.8-3.9c1.1,0,2.2,0.1,3.3,0.4  c1.1,0.3,2,0.8,2.9,1.7c0.9,0.8,1.5,2,2.1,3.5c0.5,1.5,0.8,3.4,0.8,5.8c0,0.7,0,1.4-0.1,2.2c-0.1,0.7-0.1,1.6-0.2,2.4h-14.9  c0,1.7,0.1,3.2,0.4,4.6c0.3,1.4,0.7,2.5,1.3,3.5c0.6,1,1.3,1.7,2.3,2.2c0.9,0.5,2.1,0.8,3.4,0.8c1,0,2.1-0.2,3.1-0.6  c1-0.4,1.8-0.9,2.4-1.4L566.8,580z"/>
<path fill="#E84B37" d="M595.2,571.7l1.2,5.7h0.3l0.9-5.7l4.5-19h4.3l-7,26.3c-0.6,2.1-1.1,4.1-1.6,5.9c-0.5,1.8-1.1,3.4-1.8,4.8  c-0.7,1.3-1.4,2.4-2.2,3.2c-0.8,0.8-1.7,1.1-2.8,1.1c-1.1,0-2.1-0.2-2.9-0.5l0.7-4c0.5,0.2,1.1,0.2,1.6,0.1c0.5-0.1,1.1-0.5,1.6-1  c0.5-0.6,0.9-1.3,1.4-2.4c0.4-1.1,0.8-2.5,1.1-4.2l-9.5-29.3h4.8L595.2,571.7z"/>
<path fill="#E84B37" d="M627.1,580.5c-1,0.7-2.1,1.3-3.3,1.6c-1.2,0.4-2.6,0.5-3.9,0.5c-1.9,0-3.5-0.4-4.8-1.1  c-1.3-0.7-2.3-1.8-3.1-3.1c-0.8-1.4-1.4-3-1.8-4.8c-0.4-1.9-0.6-4-0.6-6.3c0-5,0.9-8.8,2.7-11.4c1.8-2.6,4.3-3.9,7.6-3.9  c1.5,0,2.8,0.1,3.9,0.4c1.1,0.3,2,0.7,2.8,1.1l-1.2,3.7c-1.6-0.9-3.3-1.3-5.1-1.3c-2.1,0-3.7,0.9-4.8,2.8c-1.1,1.9-1.6,4.8-1.6,8.8  c0,1.6,0.1,3.1,0.3,4.5c0.2,1.4,0.6,2.6,1.2,3.7c0.5,1,1.2,1.9,2.1,2.5c0.9,0.6,1.9,0.9,3.2,0.9c1,0,2-0.2,2.8-0.5  c0.9-0.4,1.6-0.8,2.1-1.2L627.1,580.5z"/>
<path fill="#E84B37" d="M644.5,556.5h-6.4c-0.1,3.3-0.3,6.5-0.5,9.7c-0.2,3.1-0.5,5.9-1,8.2c-0.5,2.4-1.2,4.3-2.1,5.7  c-0.9,1.4-2.1,2.1-3.6,2.1c-0.7,0-1.2,0-1.7-0.1c-0.5-0.1-0.9-0.2-1.3-0.4l0.6-3.6c0.8,0.2,1.5,0.2,2.2-0.2c0.6-0.3,1.2-1.3,1.7-3  c0.5-1.7,0.8-4.3,1.1-7.8c0.3-3.5,0.5-8.3,0.6-14.4h14.5V582h-4.2V556.5z"/>
<path fill="#E84B37" d="M664,571.7l1.2,5.7h0.3l0.9-5.7l4.4-19h4.3l-7,26.3c-0.5,2.1-1.1,4.1-1.6,5.9c-0.5,1.8-1.2,3.4-1.8,4.8  c-0.6,1.3-1.4,2.4-2.1,3.2c-0.8,0.8-1.8,1.1-2.9,1.1c-1.1,0-2-0.2-2.9-0.5l0.7-4c0.6,0.2,1.1,0.2,1.6,0.1c0.5-0.1,1.1-0.5,1.6-1  c0.5-0.6,1-1.3,1.3-2.4c0.4-1.1,0.8-2.5,1.1-4.2l-9.5-29.3h4.8L664,571.7z"/>
<polygon fill="#E84B37" points="694,556.5 684.2,556.5 684.2,582 680,582 680,552.7 694,552.7 "/>
<polygon fill="#E84B37" points="713.1,565.1 713.5,560.7 713.2,560.7 711.2,565.6 701.3,582 698.5,582 698.5,552.7 702.7,552.7   702.7,570.1 702.4,574.4 702.6,574.4 704.6,569.6 714.6,552.7 717.3,552.7 717.3,582 713.1,582 "/>
<polygon fill="#E84B37" points="370,501.1 360.3,501.1 360.3,526.6 356.1,526.6 356.1,497.3 370,497.3 "/>
<path fill="#E84B37" d="M377,511.9c0,1.7,0.1,3.3,0.3,4.7c0.2,1.4,0.6,2.6,1.1,3.7c0.5,1,1.1,1.8,1.9,2.4c0.8,0.6,1.7,0.8,2.8,0.8  c2,0,3.6-0.9,4.6-2.7c1-1.8,1.5-4.8,1.5-8.8c0-1.7-0.1-3.2-0.3-4.7c-0.2-1.4-0.6-2.6-1.1-3.7c-0.5-1-1.1-1.8-1.9-2.4  c-0.8-0.6-1.7-0.8-2.8-0.8c-2,0-3.5,0.9-4.5,2.8C377.5,505,377,507.9,377,511.9 M372.6,511.9c0-5.3,0.9-9.2,2.7-11.6  c1.8-2.5,4.4-3.7,7.8-3.7c3.6,0,6.3,1.3,8,3.8c1.7,2.6,2.6,6.4,2.6,11.6c0,5.3-0.9,9.2-2.7,11.7c-1.9,2.5-4.4,3.7-7.8,3.7  c-3.6,0-6.2-1.3-7.9-3.8C373.5,520.9,372.6,517.1,372.6,511.9"/>
<path fill="#E84B37" d="M416.6,525.1c-1,0.8-2.1,1.3-3.3,1.7c-1.2,0.3-2.6,0.5-3.9,0.5c-1.9,0-3.4-0.4-4.7-1.1  c-1.3-0.7-2.3-1.8-3.1-3.1c-0.8-1.3-1.4-3-1.8-4.9c-0.4-1.9-0.5-4-0.5-6.3c0-5,0.9-8.8,2.7-11.4c1.8-2.6,4.3-3.9,7.6-3.9  c1.5,0,2.8,0.1,3.9,0.4c1.1,0.3,2,0.6,2.8,1.1l-1.2,3.7c-1.6-0.9-3.3-1.3-5.1-1.3c-2.1,0-3.7,0.9-4.8,2.8c-1.1,1.9-1.6,4.8-1.6,8.8  c0,1.6,0.1,3.1,0.4,4.5c0.2,1.4,0.6,2.6,1.2,3.7c0.6,1,1.3,1.9,2.1,2.5c0.9,0.6,1.9,0.9,3.2,0.9c1,0,2-0.2,2.8-0.5  c0.9-0.4,1.6-0.8,2.1-1.2L416.6,525.1z"/>
<path fill="#E84B37" d="M429.1,516.2l1.2,5.7h0.3l0.9-5.7l4.5-19h4.3l-7,26.3c-0.5,2.1-1.1,4.1-1.6,5.9c-0.6,1.8-1.1,3.4-1.8,4.8  c-0.6,1.3-1.4,2.4-2.2,3.2c-0.8,0.8-1.7,1.1-2.8,1.1c-1.1,0-2-0.2-2.9-0.5l0.7-4c0.5,0.2,1.1,0.2,1.6,0.1c0.6-0.1,1.1-0.5,1.5-1  c0.5-0.6,0.9-1.4,1.4-2.5c0.4-1.1,0.8-2.5,1.1-4.2l-9.5-29.3h4.8L429.1,516.2z"/>
<path fill="#E84B37" d="M457.9,522.8v-21.7h-6.6c-0.1,1.7-0.2,3.5-0.3,5.5c-0.1,2-0.3,4-0.6,6c-0.3,2-0.6,3.9-1,5.7  c-0.4,1.8-0.8,3.3-1.3,4.6L457.9,522.8L457.9,522.8z M465.6,534h-2.9l-0.7-7.5h-17.3l-0.8,7.5h-2.9v-11.3h2.8c0.3-0.4,0.6-1.2,1-2.4  c0.4-1.1,0.8-2.8,1.2-4.8c0.4-2.1,0.7-4.6,1-7.6c0.3-3,0.5-6.6,0.5-10.8h14.7v25.5h3.5L465.6,534L465.6,534z"/>
<path fill="#E84B37" d="M483.5,513.2c-0.4-0.1-0.8-0.1-1.2-0.1c-0.4,0-0.8,0-1.2,0c-0.9,0-1.8,0.1-2.7,0.2c-0.9,0.2-1.7,0.4-2.4,0.8  c-0.7,0.4-1.2,0.9-1.6,1.6c-0.4,0.6-0.6,1.5-0.6,2.5c0,1.6,0.4,2.8,1.1,3.6c0.7,0.9,1.7,1.3,2.9,1.3c1.6,0,2.9-0.4,3.8-1.2  c0.9-0.8,1.5-1.6,1.9-2.6V513.2z M470.9,499c1.1-0.7,2.5-1.2,4.1-1.6c1.6-0.4,3.3-0.6,5.1-0.6c1.6,0,3,0.2,4,0.7  c1,0.5,1.8,1.2,2.3,2c0.6,0.8,0.9,1.8,1.1,2.9c0.2,1.1,0.3,2.2,0.3,3.4c0,2.3,0,4.6-0.2,6.9c-0.1,2.2-0.2,4.3-0.2,6.3  c0,1.5,0.1,2.9,0.2,4.1c0.1,1.3,0.3,2.5,0.6,3.6h-3.3l-1-3.5h-0.2c-0.6,1-1.4,1.9-2.6,2.6c-1.1,0.8-2.6,1.1-4.5,1.1  c-2.1,0-3.8-0.7-5.2-2.2c-1.3-1.5-2-3.5-2-6.1c0-1.7,0.3-3.1,0.8-4.2c0.6-1.1,1.4-2.1,2.4-2.8c1-0.7,2.3-1.2,3.7-1.5  c1.4-0.3,3-0.4,4.7-0.4h1.2c0.4,0,0.8,0,1.2,0.1c0.1-1.2,0.2-2.3,0.2-3.2c0-2.2-0.3-3.8-1-4.7c-0.7-0.9-1.9-1.3-3.6-1.3  c-1.1,0-2.3,0.2-3.5,0.5c-1.3,0.3-2.4,0.7-3.2,1.2L470.9,499z"/>
<path fill="#E84B37" d="M500,522c0.5,0.5,1.2,0.8,1.8,1.1c0.7,0.3,1.6,0.4,2.7,0.4c2.1,0,3.7-1.1,4.9-3.2c1.2-2.1,1.8-5.1,1.8-9  c0-1.6-0.1-3.1-0.3-4.5c-0.2-1.3-0.6-2.5-1-3.4c-0.5-1-1-1.7-1.8-2.2c-0.7-0.5-1.6-0.8-2.7-0.8c-2.9,0-4.7,1.7-5.5,5.2V522z   M495.8,497.3h3l0.7,3.2h0.2c1.4-2.6,3.7-3.9,6.8-3.9c3.1,0,5.4,1.2,7,3.5c1.5,2.3,2.3,6.1,2.3,11.3c0,2.4-0.2,4.7-0.8,6.6  c-0.5,2-1.2,3.6-2.2,5c-0.9,1.4-2.1,2.5-3.4,3.2c-1.3,0.7-2.9,1.1-4.5,1.1c-1.1,0-2-0.1-2.7-0.2c-0.7-0.1-1.4-0.4-2.2-0.8v12.1h-4.2  L495.8,497.3L495.8,497.3z"/>
<path fill="#E84B37" d="M538.7,525.1c-1,0.8-2.1,1.3-3.3,1.7c-1.3,0.3-2.6,0.5-3.9,0.5c-1.9,0-3.5-0.4-4.8-1.1  c-1.3-0.7-2.3-1.8-3.1-3.1c-0.8-1.3-1.4-3-1.8-4.9c-0.4-1.9-0.6-4-0.6-6.3c0-5,0.9-8.8,2.7-11.4c1.8-2.6,4.3-3.9,7.7-3.9  c1.5,0,2.8,0.1,3.9,0.4c1.1,0.3,2,0.6,2.8,1.1l-1.2,3.7c-1.6-0.9-3.3-1.3-5.1-1.3c-2.1,0-3.7,0.9-4.8,2.8c-1.1,1.9-1.6,4.8-1.6,8.8  c0,1.6,0.1,3.1,0.4,4.5c0.2,1.4,0.6,2.6,1.2,3.7c0.5,1,1.3,1.9,2.1,2.5c0.9,0.6,1.9,0.9,3.2,0.9c1,0,2-0.2,2.8-0.5  c0.9-0.4,1.6-0.8,2.1-1.2L538.7,525.1z"/>
<polygon fill="#E84B37" points="559.2,501.1 552,501.1 552,526.6 547.7,526.6 547.7,501.1 540.5,501.1 540.5,497.3 559.2,497.3 "/>
<path fill="#E84B37" d="M568.1,523c0.6,0.1,1.1,0.1,1.7,0.2c0.5,0.1,1.2,0.1,2,0.1c2,0,3.4-0.4,4.4-1.2c0.9-0.8,1.4-2.1,1.4-4  c0-1.4-0.4-2.6-1.2-3.5c-0.8-0.9-2.2-1.4-4.3-1.4h-3.9V523z M572.4,509.8c0.5,0,1.1-0.1,1.6-0.4c0.5-0.2,1-0.6,1.4-1  c0.4-0.4,0.7-0.9,1-1.5c0.2-0.6,0.3-1.2,0.3-1.8c0-1.5-0.4-2.6-1.1-3.4c-0.7-0.7-2-1-3.7-1c-0.9,0-1.7,0-2.2,0.1  c-0.6,0.1-1.1,0.1-1.6,0.1v8.9H572.4z M563.9,497.3c1.1-0.1,2.3-0.2,3.6-0.3c1.3-0.1,2.8-0.2,4.6-0.2c3.2,0,5.4,0.6,6.8,1.8  c1.4,1.2,2.1,3,2.1,5.4c0,1.4-0.3,2.7-1,4c-0.7,1.3-1.7,2.3-3.3,2.9v0.2c1.9,0.4,3.2,1.2,4,2.4c0.8,1.2,1.2,2.7,1.2,4.7  c0,3-0.9,5.2-2.7,6.6c-1.8,1.4-4.5,2-8,2c-1.3,0-2.6,0-3.8-0.1s-2.4-0.2-3.5-0.3L563.9,497.3L563.9,497.3z"/>
<path fill="#E84B37" d="M602.9,508.9c0.1-2.9-0.3-5.1-1.2-6.5c-0.9-1.4-2.1-2-3.7-2c-1.8,0-3.2,0.7-4.3,2c-1,1.4-1.7,3.5-1.9,6.5  H602.9z M606.2,524.6c-0.9,0.8-2.1,1.5-3.6,2c-1.5,0.5-3,0.7-4.6,0.7c-1.8,0-3.4-0.4-4.8-1.1c-1.4-0.7-2.5-1.8-3.3-3.1  c-0.9-1.3-1.5-3-1.9-4.8c-0.4-1.9-0.6-4-0.6-6.3c0-5,0.9-8.8,2.8-11.4c1.8-2.6,4.4-3.9,7.8-3.9c1.1,0,2.2,0.1,3.2,0.4  c1.1,0.3,2,0.8,2.9,1.6c0.9,0.8,1.6,2,2.1,3.5c0.5,1.5,0.8,3.4,0.8,5.8c0,0.7,0,1.4-0.1,2.2c0,0.8-0.1,1.6-0.2,2.4h-14.9  c0,1.7,0.1,3.2,0.4,4.6c0.3,1.4,0.7,2.5,1.3,3.5c0.6,1,1.3,1.7,2.3,2.2c0.9,0.5,2.1,0.8,3.4,0.8c1.1,0,2.1-0.2,3.1-0.6  c1-0.4,1.8-0.9,2.4-1.4L606.2,524.6z"/>
<polygon fill="#E84B37" points="628.4,513.5 618.3,513.5 618.3,526.6 614.1,526.6 614.1,497.3 618.3,497.3 618.3,509.7 628.4,509.7   628.4,497.3 632.7,497.3 632.7,526.6 628.4,526.6 "/>
<polygon fill="#E84B37" points="655.1,513.5 644.9,513.5 644.9,526.6 640.7,526.6 640.7,497.3 644.9,497.3 644.9,509.7 655.1,509.7   655.1,497.3 659.3,497.3 659.3,526.6 655.1,526.6 "/>
<path fill="#E84B37" d="M687.7,497.3h4.2v29.3h-4.2V497.3z M671.5,522.8c1.2,0.2,2.2,0.3,3.2,0.3c1.9,0,3.2-0.5,3.9-1.5  c0.8-1,1.1-2.4,1.1-4.3c0-1.8-0.4-3.1-1.1-4.1c-0.7-1-2-1.5-3.8-1.5c-0.5,0-1.1,0-1.6,0.1c-0.6,0.1-1.2,0.2-1.7,0.3L671.5,522.8  L671.5,522.8z M671.5,508.5c0.8-0.2,1.5-0.3,2.2-0.3c0.7-0.1,1.4-0.1,2-0.1c1.6,0,3,0.2,4.1,0.7c1.1,0.5,2,1.1,2.6,1.8  c0.6,0.8,1.1,1.7,1.4,2.8c0.3,1.1,0.4,2.2,0.4,3.4c0,3.6-0.8,6.1-2.4,7.8c-1.6,1.6-4.2,2.4-7.9,2.4c-2.3,0-4.5-0.1-6.6-0.4v-29.3  h4.2L671.5,508.5L671.5,508.5z"/>
<path fill="#E84B37" d="M714.3,508.9c0.1-2.9-0.3-5.1-1.2-6.5c-0.9-1.4-2.1-2-3.7-2c-1.8,0-3.2,0.7-4.3,2c-1.1,1.4-1.7,3.5-1.9,6.5  H714.3z M717.6,524.6c-0.9,0.8-2.1,1.5-3.6,2c-1.5,0.5-3,0.7-4.6,0.7c-1.8,0-3.4-0.4-4.8-1.1c-1.3-0.7-2.5-1.8-3.3-3.1  c-0.9-1.3-1.5-3-1.9-4.8c-0.4-1.9-0.6-4-0.6-6.3c0-5,0.9-8.8,2.8-11.4c1.8-2.6,4.4-3.9,7.8-3.9c1.1,0,2.2,0.1,3.3,0.4  c1.1,0.3,2,0.8,2.9,1.6c0.9,0.8,1.5,2,2.1,3.5c0.5,1.5,0.8,3.4,0.8,5.8c0,0.7,0,1.4-0.1,2.2c-0.1,0.8-0.1,1.6-0.2,2.4h-14.9  c0,1.7,0.2,3.2,0.4,4.6c0.3,1.4,0.7,2.5,1.3,3.5c0.6,1,1.3,1.7,2.3,2.2c0.9,0.5,2.1,0.8,3.4,0.8c1,0,2.1-0.2,3.1-0.6  c1-0.4,1.8-0.9,2.4-1.4L717.6,524.6z"/>
</svg>
